<svg width="24" height="24" viewBox="0 0 24 24" fill="none" xmlns="http://www.w3.org/2000/svg">
<path d="M3 11H10.9956V3H3V11ZM4.99889 5H8.99667V9H4.99889V5ZM3 21H10.9956V13H3V21ZM4.99889 15H8.99667V19H4.99889V15ZM12.9944 3V11H20.99V3H12.9944ZM18.9911 9H14.9933V5H18.9911V9ZM13.0044 13H15.0033V15H13.0044V13ZM15.0033 15H17.0022V17H15.0033V15ZM13.0044 17H15.0033V19H13.0044V17ZM17.0022 17H19.0011V19H17.0022V17ZM19.0011 19H21V21H19.0011V19ZM15.0033 19H17.0022V21H15.0033V19ZM17.0022 13H19.0011V15H17.0022V13ZM19.0011 15H21V17H19.0011V15Z" fill="#FF791F"/>
</svg>