<svg width="20" height="20" viewBox="0 0 20 20" fill="none" xmlns="http://www.w3.org/2000/svg">
<circle opacity="0.1" cx="10" cy="10" r="10" fill="black"/>
<path opacity="0.5" d="M10.7905 12.128V14H8.8705V12.128H10.7905ZM6.9445 7.172C7.2005 6.54 7.5905 6.054 8.1145 5.714C8.6425 5.374 9.2705 5.204 9.9985 5.204C10.5705 5.204 11.0705 5.296 11.4985 5.48C11.9265 5.664 12.2585 5.91 12.4945 6.218C12.7345 6.526 12.8545 6.868 12.8545 7.244C12.8545 7.636 12.7745 7.97 12.6145 8.246C12.4585 8.522 12.2665 8.77 12.0385 8.99C11.8105 9.206 11.5805 9.422 11.3485 9.638C11.1205 9.85 10.9285 10.088 10.7725 10.352C10.6165 10.612 10.5385 10.924 10.5385 11.288H9.1285C9.1285 10.848 9.1945 10.468 9.3265 10.148C9.4625 9.824 9.6285 9.542 9.8245 9.302C10.0245 9.058 10.2225 8.834 10.4185 8.63C10.6145 8.426 10.7785 8.222 10.9105 8.018C11.0465 7.81 11.1145 7.582 11.1145 7.334C11.1145 7.05 11.0065 6.824 10.7905 6.656C10.5785 6.488 10.3105 6.404 9.9865 6.404C9.7705 6.404 9.5605 6.452 9.3565 6.548C9.1525 6.64 8.9685 6.77 8.8045 6.938C8.6445 7.106 8.5205 7.304 8.4325 7.532L6.9445 7.172Z" fill="black"/>
</svg>
