<svg width="12" height="12" viewBox="0 0 12 12" fill="none" xmlns="http://www.w3.org/2000/svg">
<path fill-rule="evenodd" clip-rule="evenodd" d="M6 0C7.5913 0 9.11742 0.632141 10.2426 1.75736C11.3679 2.88258 12 4.4087 12 6C12 7.5913 11.3679 9.11742 10.2426 10.2426C9.11742 11.3679 7.5913 12 6 12C4.4087 12 2.88258 11.3679 1.75736 10.2426C0.632141 9.11742 0 7.5913 0 6C0 4.4087 0.632141 2.88258 1.75736 1.75736C2.88258 0.632141 4.4087 0 6 0V0ZM3.917 3.917C3.80678 4.02759 3.74488 4.17736 3.74488 4.3335C3.74488 4.48964 3.80678 4.63941 3.917 4.75L5.166 6L3.916 7.25C3.81854 7.34763 3.75837 7.47631 3.74595 7.6137C3.73353 7.75108 3.76964 7.88848 3.848 8.002L3.917 8.083C4.147 8.313 4.52 8.313 4.75 8.083L6 6.833L7.25 8.083C7.30344 8.14299 7.36858 8.19143 7.4414 8.22536C7.51423 8.25928 7.59322 8.27798 7.67353 8.28029C7.75384 8.28261 7.83378 8.2685 7.90844 8.23882C7.9831 8.20915 8.05092 8.16454 8.10773 8.10773C8.16454 8.05092 8.20915 7.9831 8.23882 7.90844C8.2685 7.83378 8.28261 7.75384 8.28029 7.67353C8.27798 7.59322 8.25928 7.51423 8.22536 7.4414C8.19143 7.36858 8.14299 7.30344 8.083 7.25L6.833 6L8.083 4.75C8.18061 4.6525 8.24096 4.52387 8.25357 4.38649C8.26618 4.2491 8.23024 4.11164 8.152 3.998L8.083 3.917C7.97241 3.80678 7.82264 3.74488 7.6665 3.74488C7.51036 3.74488 7.36059 3.80678 7.25 3.917L6 5.166L4.75 3.916C4.63941 3.80578 4.48964 3.74388 4.3335 3.74388C4.17736 3.74388 4.02759 3.80578 3.917 3.916V3.917Z" fill="black"/>
</svg>
