<svg width="207" height="75" viewBox="0 0 207 75" fill="none" xmlns="http://www.w3.org/2000/svg">
<path d="M23.033 30.2967C20.3546 29.4184 15.3132 28.5919 15.3132 25.8019C15.3132 23.9417 16.9411 22.7536 20.0395 22.7536C24.3983 22.7536 27.9167 25.0783 28.8094 26.7317L34.1661 23.3217C32.8532 19.7052 27.4442 16.0884 20.8797 16.0884C13.9477 16.0884 7.54104 18.9817 7.54104 26.1635C7.54104 33.5001 16.2585 35.1535 18.9367 36.0318C21.5625 36.9101 26.919 37.8402 26.919 40.6302C26.919 42.7488 25.7637 44.1952 21.615 44.1952C16.731 44.1952 12.6349 40.8371 11.6371 38.9254L6.1756 42.7488C7.85618 46.7787 13.0026 50.9119 20.8798 50.9119C29.0721 50.9119 34.4813 47.2954 34.4813 40.3204C34.4813 33.2936 25.6061 31.1754 23.033 30.2967Z" fill="#010101"/>
<path d="M97.5546 37.6853C97.5546 42.3355 94.5612 44.1954 91.0953 44.1954C87.6292 44.1954 84.636 42.3355 84.636 37.6853V16.7085H77.8615V38.4088C77.8615 45.0737 82.5878 50.7055 91.0953 50.7055C99.6028 50.7055 104.329 45.0737 104.329 38.4088V16.7085H97.5546V37.6853Z" fill="#010101"/>
<path d="M136.889 27.7652C136.889 20.5319 131.585 16.7085 126.491 16.7085H110.107V50.2921H116.881V38.8219H122.395L129.747 50.2921H137.572L129.852 38.2538C133.686 36.9103 136.889 33.3452 136.889 27.7652ZM125.389 32.3122H116.881V23.1671H125.389C127.909 23.1671 130.062 24.9238 130.062 27.7652C130.062 30.5552 127.909 32.3122 125.389 32.3122V32.3122Z" fill="#010101"/>
<path d="M158.054 22.9602C161.783 22.9602 164.776 24.8204 166.404 27.042L171.866 23.0635C168.925 18.8785 164.094 16.2954 158.054 16.2954C147.919 16.2954 140.83 23.5287 140.83 33.5003C140.83 43.4721 147.919 50.7055 158.054 50.7055C164.094 50.7055 168.925 48.122 171.866 43.937L166.404 39.8038C164.776 41.922 161.783 44.0403 158.054 44.0403C151.805 44.0403 147.604 39.5969 147.604 33.5003C147.604 27.4036 151.805 22.9602 158.054 22.9602Z" fill="#010101"/>
<path d="M197.439 33.4877C199.647 31.8489 200.824 29.5157 200.824 26.6559C200.824 19.0134 193.628 16.3018 187.465 16.3018C182.532 16.3018 177.766 18.1342 175.606 20.8615L175.392 21.1316L180.029 25.4696L180.294 25.1932C181.48 23.9536 184.23 22.6193 187.465 22.6193C191.142 22.6193 193.518 24.2037 193.518 26.6558C193.518 28.2507 192.391 29.6703 190.647 30.2722C190.326 30.3814 189.997 30.467 189.662 30.5282H181.024V36.447H189.662C189.997 36.5083 190.326 36.5938 190.647 36.703C192.391 37.305 193.518 38.7246 193.518 40.3195C193.518 42.7716 191.142 44.356 187.465 44.356C184.23 44.356 181.48 43.0217 180.294 41.7821L180.029 41.5057L175.392 45.8436L175.606 46.1136C177.766 48.841 182.532 50.6734 187.465 50.6734C193.628 50.6734 200.824 47.9618 200.824 40.3195C200.824 37.4598 199.647 35.1266 197.439 33.4877Z" fill="#010101"/>
<path d="M52.6674 43.7888C50.4587 43.113 48.5276 41.7601 47.1562 39.9275C45.7848 38.095 45.0451 35.879 45.0451 33.6034C45.0451 31.3277 45.7848 29.1117 47.1562 27.2792C48.5276 25.4467 50.4587 24.0937 52.6674 23.418V16.4688C48.5973 17.2086 44.9192 19.3276 42.2718 22.4577C39.6243 25.5878 38.1747 29.5313 38.1747 33.6034C38.1747 37.6755 39.6243 41.619 42.2718 44.7491C44.9192 47.8792 48.5973 49.9982 52.6674 50.7381V43.7888Z" fill="#010101"/>
<path d="M59.0979 16.4688V23.418C61.3066 24.0937 63.2377 25.4467 64.6091 27.2792C65.9805 29.1118 66.7202 31.3278 66.7202 33.6034C66.7202 35.8791 65.9805 38.0951 64.6091 39.9276C63.2377 41.7601 61.3066 43.1131 59.0979 43.7888V50.7381C63.1679 49.9982 66.8461 47.8792 69.4935 44.7491C72.141 41.619 73.5906 37.6755 73.5906 33.6034C73.5906 29.5313 72.141 25.5878 69.4935 22.4577C66.8461 19.3276 63.1679 17.2086 59.0979 16.4688V16.4688Z" fill="#010101"/>
<path d="M16.672 69.84L18.88 63.68H20.608L17.488 72H15.904L13.504 65.696L11.104 72H9.52L6.4 63.68H8.128L10.336 69.84L12.736 63.68H14.272L16.672 69.84ZM25.7196 63.52C27.6076 63.52 30.1516 64.96 29.7676 68.48H23.1916C23.4476 69.904 24.5356 70.688 25.9276 70.688C26.8076 70.688 27.5756 70.432 28.2316 69.92L29.2076 70.848C28.4236 71.728 27.3196 72.16 25.8796 72.16C25.1596 72.16 24.4716 72.016 23.8156 71.712C22.5196 71.088 21.4956 69.696 21.4956 67.856C21.4956 66.464 22.0716 65.28 22.9036 64.592C23.7516 63.904 24.7596 63.52 25.7196 63.52ZM25.7196 65.008C24.5676 65.008 23.4636 65.808 23.2076 67.2H28.2156C28.1356 66.512 27.8476 65.968 27.3516 65.584C26.8556 65.2 26.3116 65.008 25.7196 65.008ZM35.7689 63.52C36.7289 63.52 37.7209 63.888 38.5369 64.576C39.3529 65.264 39.8969 66.448 39.8969 67.84C39.8969 69.232 39.3529 70.416 38.5369 71.104C37.7209 71.792 36.7289 72.16 35.7689 72.16C34.4409 72.16 33.3849 71.424 33.0009 70.64H32.9049V72H31.1769V60.688H32.9049V65.04H33.0009C33.3849 64.256 34.4409 63.52 35.7689 63.52ZM35.5449 70.624C36.2489 70.624 36.8729 70.384 37.4009 69.888C37.9449 69.392 38.2169 68.72 38.2169 67.84C38.2169 66.96 37.9449 66.288 37.4009 65.792C36.8729 65.296 36.2489 65.056 35.5449 65.056C34.8249 65.056 34.2009 65.296 33.6569 65.792C33.1289 66.288 32.8569 66.96 32.8569 67.84C32.8569 68.72 33.1289 69.392 33.6569 69.888C34.2009 70.384 34.8249 70.624 35.5449 70.624ZM49.0809 63.52C50.6969 63.52 51.8809 64.192 52.6329 65.536L51.2889 66.144C50.7609 65.424 50.0249 65.056 49.0969 65.056C48.4089 65.056 47.8009 65.312 47.2569 65.808C46.7289 66.304 46.4569 66.976 46.4569 67.856C46.4569 68.72 46.7289 69.392 47.2569 69.888C47.8009 70.384 48.4089 70.624 49.0969 70.624C50.0409 70.624 50.7609 70.272 51.2889 69.552L52.6489 70.16C51.8969 71.488 50.6969 72.16 49.0809 72.16C47.1929 72.16 44.7609 70.752 44.7769 67.856C44.7769 66.464 45.3689 65.28 46.2169 64.592C47.0969 63.904 48.1049 63.52 49.0809 63.52ZM54.005 60.688H55.733V72H54.005V60.688ZM57.4894 60.688H59.2174V62.352H57.4894V60.688ZM57.4894 63.68H59.2174V72H57.4894V63.68ZM64.7977 63.52C66.6858 63.52 69.2298 64.96 68.8458 68.48H62.2698C62.5258 69.904 63.6138 70.688 65.0058 70.688C65.8858 70.688 66.6538 70.432 67.3098 69.92L68.2858 70.848C67.5018 71.728 66.3978 72.16 64.9578 72.16C64.2378 72.16 63.5498 72.016 62.8938 71.712C61.5978 71.088 60.5738 69.696 60.5738 67.856C60.5738 66.464 61.1497 65.28 61.9818 64.592C62.8298 63.904 63.8378 63.52 64.7977 63.52ZM64.7977 65.008C63.6458 65.008 62.5418 65.808 62.2858 67.2H67.2938C67.2138 66.512 66.9258 65.968 66.4298 65.584C65.9338 65.2 65.3898 65.008 64.7977 65.008ZM74.847 63.52C75.711 63.52 76.447 63.824 77.055 64.448C77.663 65.072 77.967 65.984 77.967 67.184V72H76.239V67.28C76.239 65.792 75.407 65.04 74.255 65.04C73.615 65.04 73.087 65.264 72.671 65.712C72.271 66.144 72.031 66.592 71.983 67.024V72H70.255V63.68H71.983V65.408C72.159 64.928 73.023 63.52 74.847 63.52ZM83.8056 63.68V65.12H82.0456V69.776C82.0456 70.304 82.3016 70.56 82.8296 70.56C83.1336 70.56 83.4536 70.496 83.8056 70.368V71.792C83.4056 72 82.9256 72.096 82.3656 72.096C81.0856 72.096 80.3176 71.584 80.3176 70.16V65.12H79.1656V63.68H80.3176V61.552H82.0456V63.68H83.8056Z" fill="black"/>
</svg>
