<svg id="Logotypes" xmlns="http://www.w3.org/2000/svg" viewBox="0 0 1483.3573 488"><defs><style>.cls-1{fill:#010101;}</style></defs><g id="Logotype_Black"><path class="cls-1" d="M165.0535,220.6676c-19.1929-6.3971-55.32-12.417-55.32-32.7382,0-13.5491,11.666-22.2029,33.8689-22.2029,31.235,0,56.448,16.9327,62.8452,28.9749l38.3858-24.8366c-9.4086-26.3411-48.1692-52.6847-95.21-52.6847-49.6747,0-95.5847,21.0734-95.5847,73.3831,0,53.4368,62.469,65.4791,81.6609,71.8763,18.8164,6.3973,57.2012,13.1718,57.2012,33.493,0,15.4308-8.2788,25.9662-38.0086,25.9662-34.9983,0-64.3507-24.4595-71.5011-38.3834l-39.1371,27.848C56.297,340.7155,93.1759,370.82,149.6239,370.82c58.7057,0,97.468-26.3411,97.468-77.1439C247.0919,242.4957,183.4928,227.0673,165.0535,220.6676Z"/><path class="cls-1" d="M699.0739,274.4818c0,33.87-21.4507,47.4169-46.2872,47.4169-24.8385,0-46.2878-13.5466-46.2878-47.4169V121.6956h-48.546V279.7519c0,48.544,33.869,89.5637,94.8338,89.5637s94.8324-41.02,94.8324-89.5637V121.6956H699.0739Z"/><path class="cls-1" d="M980.9463,202.2282c0-52.6846-38.0083-80.5326-74.5115-80.5326H789.022V366.3044h48.5466V282.7607h39.5128l52.6854,83.5437h56.0725l-55.32-87.6819C957.9911,268.8368,980.9463,242.8706,980.9463,202.2282Zm-82.4142,33.1181H837.5686V168.7377h60.9635c18.0635,0,33.4928,12.7944,33.4928,33.4905C932.0249,222.5494,916.5956,235.3463,898.5321,235.3463Z"/><path class="cls-1" d="M1132.6149,167.2309c26.7184,0,48.1691,13.549,59.8338,29.73l39.138-28.9774c-21.0759-30.4818-55.6957-49.2961-98.9718-49.2961-72.6309,0-123.4336,52.6846-123.4336,125.313,0,72.631,50.8027,125.3156,123.4336,125.3156,43.2761,0,77.8959-18.8168,98.9718-49.2986l-39.138-30.1044c-11.6647,15.4282-33.1154,30.8566-59.8338,30.8566-44.7827,0-74.89-32.3635-74.89-76.7692S1087.8322,167.2309,1132.6149,167.2309Z"/><path class="cls-1" d="M1414.8419,243.9082c15.8229-11.9365,24.2609-28.931,24.2609-49.7606,0-55.6642-51.5711-75.4149-95.7338-75.4149-35.3519,0-69.5029,13.3465-84.9819,33.2114l-1.5314,1.9673,33.2295,31.596,1.8955-2.013c8.5-9.029,28.2068-18.7472,51.3883-18.7472,26.3518,0,43.3782,11.54,43.3782,29.4,0,11.6169-8.0746,21.9564-20.5728,26.34a49.245,49.245,0,0,1-7.06,1.8652h-61.9032v43.11h61.9052a49.23,49.23,0,0,1,7.0577,1.8645c12.4982,4.3846,20.5728,14.7241,20.5728,26.341,0,17.86-17.0264,29.4-43.3782,29.4-23.1815,0-42.8879-9.7182-51.3883-18.7473l-1.8955-2.0129-33.2295,31.5954,1.5314,1.9666c15.4777,19.8655,49.63,33.212,84.9819,33.212,44.1627,0,95.7338-19.7507,95.7338-75.4142C1439.1028,272.8392,1430.6648,255.8447,1414.8419,243.9082Z"/><path class="cls-1" d="M377.413,318.9375a77.69,77.69,0,0,1,0-148.3721V119.95a126.9142,126.9142,0,0,0,0,249.6033Z"/><path class="cls-1" d="M423.494,119.95v50.6156a77.69,77.69,0,0,1,0,148.3721v50.6156a126.9142,126.9142,0,0,0,0-249.6033Z"/></g></svg>