<svg width="375" height="630" viewBox="0 0 375 630" fill="none" xmlns="http://www.w3.org/2000/svg">
<rect width="375" height="630" fill="white"/>
<path d="M169.911 511.8V520.632H174.167V523H167.335V511.8H169.911ZM178.125 514.808C179.149 514.424 180.109 514.424 181.117 514.808C182.141 515.176 183.053 515.816 183.613 516.968C184.173 518.12 184.173 519.624 183.613 520.776C183.053 521.912 182.141 522.536 181.117 522.904C180.109 523.24 179.149 523.24 178.125 522.904C177.117 522.536 176.205 521.912 175.645 520.776C175.085 519.624 175.085 518.12 175.645 516.968C176.205 515.816 177.117 515.176 178.125 514.808ZM177.661 518.872C177.661 519.496 177.853 520.008 178.253 520.376C178.653 520.744 179.101 520.936 179.629 520.936C180.157 520.936 180.605 520.744 180.989 520.376C181.389 520.008 181.581 519.496 181.581 518.872C181.581 518.216 181.389 517.688 180.989 517.32C180.605 516.936 180.157 516.744 179.629 516.744C179.101 516.744 178.653 516.936 178.253 517.32C177.853 517.688 177.661 518.216 177.661 518.872ZM191.318 515.608V514.68H193.845V523C193.845 524.2 193.238 525.128 192.326 525.592C191.414 526.088 190.438 526.296 189.43 526.296C188.486 526.296 187.766 526.152 187.238 525.88V523.816C187.718 524.072 188.454 524.2 189.43 524.2C190.758 524.2 191.318 523.576 191.318 523V522.072H191.206C191.126 522.216 190.998 522.36 190.854 522.504C190.55 522.776 189.766 523.16 188.918 523.16C187.878 523.16 186.95 522.776 186.102 522.024C185.27 521.272 184.854 520.2 184.854 518.84C184.854 517.48 185.27 516.408 186.102 515.656C186.95 514.904 187.878 514.52 188.918 514.52C189.35 514.52 189.734 514.6 190.086 514.744C190.806 515.048 191.03 515.336 191.206 515.608H191.318ZM189.318 520.936C190.422 520.936 191.366 520.136 191.366 518.84C191.366 517.544 190.422 516.744 189.318 516.744C188.182 516.744 187.286 517.544 187.286 518.84C187.286 520.136 188.182 520.936 189.318 520.936ZM195.472 511.688H198V514.072H195.472V511.688ZM195.472 514.68H198V523H195.472V514.68ZM204.749 514.52C205.581 514.52 206.301 514.84 206.909 515.464C207.517 516.088 207.821 517 207.821 518.232V523H205.277V518.408C205.277 517.24 204.653 516.728 203.773 516.728C203.309 516.728 202.924 516.904 202.605 517.256C202.285 517.608 202.141 517.912 202.157 518.168V523H199.629V514.68H202.157V516.184C202.269 515.848 202.557 515.48 203.021 515.096C203.485 514.712 204.061 514.52 204.749 514.52Z" fill="white"/>
<path d="M85 209V183.612C69.255 177.495 58.1045 162.29 58.1045 144.5C58.1045 126.71 69.255 111.505 85 105.388V80C54.8662 85.5004 32 112.286 32 144.5C32 176.714 54.8662 203.5 85 209Z" fill="#4DA2E6"/>
<path d="M302 233L302 252.484C314.18 257.178 322.806 268.848 322.806 282.5C322.806 296.152 314.18 307.822 302 312.516L302 332C325.311 327.779 343 307.222 343 282.5C343 257.778 325.311 237.221 302 233Z" fill="#3FD05A"/>
<rect x="343" y="282" width="32" height="1" fill="black"/>
<rect y="144" width="32" height="1" fill="black"/>
</svg>
